<?xml version="1.0" encoding="UTF-8" standalone="no"?>
<!-- Created with Inkscape (http://www.inkscape.org/) -->

<svg
   width="210mm"
   height="297mm"
   viewBox="0 0 210 297"
   version="1.1"
   id="svg5"
   inkscape:version="1.1.1 (3bf5ae0d25, 2021-09-20)"
   sodipodi:docname="imagine.svg"
   xmlns:inkscape="http://www.inkscape.org/namespaces/inkscape"
   xmlns:sodipodi="http://sodipodi.sourceforge.net/DTD/sodipodi-0.dtd"
   xmlns:xlink="http://www.w3.org/1999/xlink"
   xmlns="http://www.w3.org/2000/svg"
   xmlns:svg="http://www.w3.org/2000/svg">
  <sodipodi:namedview
     id="namedview7"
     pagecolor="#ffffff"
     bordercolor="#999999"
     borderopacity="1"
     inkscape:pageshadow="0"
     inkscape:pageopacity="0"
     inkscape:pagecheckerboard="0"
     inkscape:document-units="mm"
     showgrid="false"
     inkscape:zoom="3.1108586"
     inkscape:cx="456.78708"
     inkscape:cy="721.50499"
     inkscape:window-width="3840"
     inkscape:window-height="2081"
     inkscape:window-x="-9"
     inkscape:window-y="-9"
     inkscape:window-maximized="1"
     inkscape:current-layer="layer1" />
  <defs
     id="defs2">
    <linearGradient
       inkscape:collect="always"
       id="linearGradient26329">
      <stop
         style="stop-color:#cff192;stop-opacity:1;"
         offset="0"
         id="stop26325" />
      <stop
         style="stop-color:#cff192;stop-opacity:0;"
         offset="1"
         id="stop26327" />
    </linearGradient>
    <linearGradient
       inkscape:collect="always"
       xlink:href="#linearGradient26329"
       id="linearGradient26331"
       x1="21.014006"
       y1="183.07081"
       x2="186.71167"
       y2="183.07081"
       gradientUnits="userSpaceOnUse" />
  </defs>
  <g
     inkscape:label="Laag 1"
     inkscape:groupmode="layer"
     id="layer1">
    <g
       aria-label="Imagine"
       id="text1740"
       style="font-size:50.8px;line-height:1.25;font-family:'Bauhaus 93';-inkscape-font-specification:'Bauhaus 93, Normal';letter-spacing:-2.64583px;word-spacing:0px;fill:url(#linearGradient26331);stroke:#000000;stroke-width:0.3;stroke-miterlimit:4;stroke-dasharray:none;fill-opacity:1">
      <path
         d="m 31.234709,160.39932 v 33.8584 H 21.164006 v -33.8584 z"
         id="path26099"
         style="stroke-width:0.3;stroke-miterlimit:4;stroke-dasharray:none;fill-opacity:1;fill:url(#linearGradient26331)" />
      <path
         d="M 68.598839,194.25772 H 59.321886 V 180.9128 q 0,-1.53789 -0.322461,-2.1332 -0.32246,-0.59532 -1.16582,-0.59532 -1.562695,0 -1.562695,2.75332 v 13.32012 H 46.993957 V 180.9128 q 0,-1.53789 -0.347266,-2.1332 -0.322461,-0.59532 -1.16582,-0.59532 -1.537891,0 -1.537891,2.75332 v 13.32012 h -9.276953 v -15.23008 q 0,-4.16718 2.80293,-7.06933 2.80293,-2.92696 6.796484,-2.92696 4.117578,0 7.391797,3.47266 3.646289,-3.47266 7.292578,-3.47266 4.638477,0 7.441406,3.37344 2.207617,2.6293 2.207617,7.66465 z"
         id="path26101"
         style="stroke-width:0.3;stroke-miterlimit:4;stroke-dasharray:none;fill-opacity:1;fill:url(#linearGradient26331)" />
      <path
         d="m 85.127036,184.98077 v 9.59941 q -1.141016,0.19844 -2.083594,0.19844 -5.581055,0 -9.301758,-3.67109 -3.720703,-3.6711 -3.720703,-9.20254 0,-5.38262 3.745508,-9.12813 3.770312,-3.74551 9.15293,-3.74551 6.002734,0 9.450585,3.52227 3.472656,3.49746 3.472656,9.57461 v 12.12949 h -9.276952 v -11.45976 q 0,-1.95957 -0.967383,-3.1254 -0.942578,-1.16582 -2.554883,-1.16582 -1.463477,0 -2.530078,1.06661 -1.066602,1.0666 -1.066602,2.53007 0,1.53789 0.967383,2.53008 0.967383,0.99219 2.455664,0.99219 1.21543,0 2.257227,-0.64492 z"
         id="path26103"
         style="stroke-width:0.3;stroke-miterlimit:4;stroke-dasharray:none;fill-opacity:1;fill:url(#linearGradient26331)" />
      <path
         d="m 111.80034,184.06299 v 8.50801 q -2.00918,0.74414 -3.84472,0.74414 -4.48965,0 -7.61504,-3.39824 -3.100589,-3.39824 -3.100589,-8.30957 0,-5.3082 3.745509,-8.95449 3.74551,-3.64629 9.20254,-3.64629 2.90215,0 5.55625,1.16582 2.6541,1.16582 4.16718,3.12539 2.53008,3.24941 2.53008,9.42578 v 8.13594 q 0,6.62285 -3.77031,10.74043 -3.74551,4.14238 -9.77305,4.14238 -1.83554,0 -4.63847,-0.91777 v -8.4336 q 1.81074,0.99219 3.67109,0.99219 2.50527,0 3.86953,-1.66191 1.36426,-1.63711 1.36426,-4.71289 v -9.30176 q 0,-3.89434 -3.1502,-3.89434 -1.33945,0 -2.35644,1.0418 -0.99219,1.01699 -0.99219,2.35645 0,1.41386 0.94258,2.35644 0.96738,0.94258 2.38125,0.94258 0.94258,0 1.81074,-0.44649 z"
         id="path26105"
         style="stroke-width:0.3;stroke-miterlimit:4;stroke-dasharray:none;fill-opacity:1;fill:url(#linearGradient26331)" />
      <path
         d="m 134.52971,169.52745 v 24.73027 h -9.27696 v -24.73027 z"
         id="path26107"
         sodipodi:nodetypes="ccccc"
         style="stroke-width:0.3;stroke-miterlimit:4;stroke-dasharray:none;fill-opacity:1;fill:url(#linearGradient26331)" />
      <path
         d="m 159.39228,194.25772 h -9.27695 v -13.96504 q 0,-2.1332 -1.76114,-2.1332 -1.73632,0 -1.73632,2.1332 v 13.96504 h -9.27696 v -13.79141 q 0,-4.83691 3.19981,-8.13593 3.1998,-3.32383 7.83828,-3.32383 5.3082,0 8.50801,3.84473 2.50527,3.00136 2.50527,8.35918 z"
         id="path26109"
         style="stroke-width:0.3;stroke-miterlimit:4;stroke-dasharray:none;fill-opacity:1;fill:url(#linearGradient26331)" />
      <path
         d="M 186.46246,183.39327 H 172.3982 q -0.32246,-1.0666 -0.32246,-1.95957 0,-1.24024 0.44648,-2.43086 h 4.71289 q -0.49609,-2.75332 -3.10058,-2.75332 -1.73633,0 -2.82774,1.48828 -1.0914,1.46348 -1.0914,3.77031 0,2.40606 1.04179,3.89434 1.0666,1.48828 2.77813,1.48828 1.38906,0 2.6789,-1.38906 l 5.2834,6.35 q -3.6959,2.90214 -8.21035,2.90214 -5.50664,0 -9.25215,-3.69589 -3.74551,-3.6959 -3.74551,-9.15293 0,-5.43223 3.77032,-9.17774 3.79511,-3.74551 9.30175,-3.74551 5.38262,0 9.02891,3.6711 3.67109,3.64629 3.67109,9.0041 0,0.5457 -0.0992,1.73633 z"
         id="path26111"
         style="stroke-width:0.3;stroke-miterlimit:4;stroke-dasharray:none;fill-opacity:1;fill:url(#linearGradient26331)" />
    </g>
    <g
       fill="#231f20"
       id="g842"
       transform="matrix(0.07551193,0,0,0.07551193,110.61714,136.78288)"
       style="fill:#cff192;fill-opacity:1;stroke:#000000;stroke-width:3.97288;stroke-miterlimit:4;stroke-dasharray:none;stroke-opacity:1">
      <path
         d="M 363.9,54.2 C 332.7,24.4 291.6,9.1 248.5,11.2 170.9,14.8 107.2,75.8 100.4,153.1 c -3.7,41.3 8.8,81.6 35,113.4 26.4,32.1 48,89 48,126.9 0,0 -2.1,13.8 10.4,14.4 h 124.7 c 13.6,-1 10.4,-17 10.4,-17 0,-37 21.1,-92.3 47.1,-123.3 23.5,-28 36.4,-63.6 36.4,-100.1 C 412.3,124.2 395.1,84 363.9,54.2 Z M 247.8,386.9 223.8,241 h 64.5 l -24,145.9 z M 359.9,254 c -28.3,33.7 -50.6,91.2 -51.9,132.8 h -22.6 l 25.5,-154.6 c 0.7,-3.2 -0.7,-11.6 -10.3,-12.1 h -89 c -9.2,0.3 -11,9 -10.3,12.1 l 25.5,154.6 H 204.1 C 202,344.5 179.6,287.2 151.5,253.1 128.8,225.6 118,190.7 121.2,154.8 127,88 182.2,35.2 249.4,32 c 37.5,-1.8 73,11.5 100,37.3 27.1,25.8 42,60.6 42,98 0.1,31.7 -11.1,62.5 -31.5,86.7 z"
         id="path838"
         style="fill:#cff192;fill-opacity:1;stroke:#000000;stroke-width:3.97288;stroke-miterlimit:4;stroke-dasharray:none;stroke-opacity:1" />
      <path
         d="M 319.7,433.9 H 192.3 c -5.8,0 -10.4,4.7 -10.4,10.4 0,5.8 4.7,10.4 10.4,10.4 h 9.7 c 4.1,26.1 26.7,46.2 54,46.2 27.3,0 49.9,-20.1 54,-46.2 h 9.7 c 5.8,0 10.4,-4.7 10.4,-10.4 0,-5.7 -4.6,-10.4 -10.4,-10.4 z M 256,480.1 c -15,0 -27.7,-9.8 -32.1,-23.3 h 64.2 c -4.4,13.5 -17.1,23.3 -32.1,23.3 z"
         id="path840"
         style="fill:#cff192;fill-opacity:1;stroke:#000000;stroke-width:3.97288;stroke-miterlimit:4;stroke-dasharray:none;stroke-opacity:1" />
    </g>
    <text
       xml:space="preserve"
       style="font-size:10.5833px;line-height:1.25;font-family:sans-serif;letter-spacing:0px;stroke-width:0.264583"
       x="154.4536"
       y="227.51289"
       id="text25247"><tspan
         sodipodi:role="line"
         id="tspan25245"
         style="stroke-width:0.264583"
         x="154.4536"
         y="227.51289" /></text>
  </g>
</svg>
